<?xml version="1.0" encoding="utf-8"?>
<svg xmlns="http://www.w3.org/2000/svg" height="256" width="256" viewBox="0 0 256 256">
  <g>
    <ellipse cy="128" cx="128" ry="128" rx="128" fill="#DCD3C2" />
    <path id="path1" transform="rotate(0,128,128) translate(59,59.2156217098236) scale(4.3125,4.3125)  " fill="#495B67" d="M6.4000244,1.8999943L6.4000244,4.3999952 7.8000488,4.3999952 7.8000488,8.2999895 6.4000244,8.2999895 6.4000244,10.79999 8,10.79999 8,14.700001 6.4000244,14.700001 6.4000244,17.200001 8.1000366,17.200001 8.1000366,21.000006 6.4000244,21.000006 6.4000244,23.500006 8.3000488,23.500006 8.3000488,27.400001 6.4000244,27.400001 6.4000244,29.900001 10,29.900001 10,1.8999943z M4.2000122,0L27.5,0 29.200012,0 29.900024,0C31,1.7070852E-07,32,1.0999913,32,2.3999949L32,29.500007C32,30.799995,31,31.900001,29.900024,31.900001L29.200012,31.900001 27.5,31.900001 4.2000122,31.900001 4.2000122,27.299995 0.40002441,27.299995 0.40002441,23.399999 4.2000122,23.399999 4.2000122,21.000006 0.30004883,21.000006 0.30004883,17.099994 4.2000122,17.099994 4.2000122,14.599994 0.10003662,14.599994 0.10003662,10.7 4.2000122,10.7 4.2000122,8.2999895 0,8.2999895 0,4.3999952 4.2000122,4.3999952z" />
  </g>
</svg>

